{
	"asset":{
		"generator":"Khronos glTF Blender I/O v4.1.62",
		"version":"2.0"
	},
	"extensionsUsed":[
		"KHR_materials_specular"
	],
	"scene":0,
	"scenes":[
		{
			"name":"Scene",
			"nodes":[
				0,
				1,
				2,
				3,
				4,
				5,
				6
			]
		}
	],
	"nodes":[
		{
			"mesh":0,
			"name":"Eixo_da_Roda_L",
			"rotation":[
				0.7071068286895752,
				0,
				0,
				0.7071068286895752
			]
		},
		{
			"mesh":1,
			"name":"Eixo_da_Roda_R",
			"rotation":[
				0.7071068286895752,
				0,
				0,
				0.7071068286895752
			]
		},
		{
			"mesh":2,
			"name":"Estrutura",
			"rotation":[
				0.7071068286895752,
				0,
				0,
				0.7071068286895752
			]
		},
		{
			"mesh":3,
			"name":"Roda_Dianteira_L",
			"rotation":[
				0.7071068286895752,
				0,
				0,
				0.7071068286895752
			]
		},
		{
			"mesh":4,
			"name":"Roda_Dianteira_R",
			"rotation":[
				0.7071068286895752,
				0,
				0,
				0.7071068286895752
			]
		},
		{
			"mesh":5,
			"name":"Roda_Traseira_L",
			"rotation":[
				0.7071068286895752,
				0,
				0,
				0.7071068286895752
			]
		},
		{
			"mesh":6,
			"name":"Roda_Traseira_R",
			"rotation":[
				0.7071068286895752,
				0,
				0,
				0.7071068286895752
			]
		}
	],
	"materials":[
		{
			"doubleSided":true,
			"extensions":{
				"KHR_materials_specular":{
					"specularFactor":0
				}
			},
			"name":"Metalico",
			"pbrMetallicRoughness":{
				"baseColorFactor":[
					0.800000011920929,
					0.800000011920929,
					0.800000011920929,
					1
				],
				"metallicFactor":0
			}
		},
		{
			"doubleSided":true,
			"extensions":{
				"KHR_materials_specular":{
					"specularFactor":0
				}
			},
			"name":"Plastica",
			"pbrMetallicRoughness":{
				"baseColorFactor":[
					0.800000011920929,
					0.800000011920929,
					0.800000011920929,
					1
				],
				"metallicFactor":0
			}
		},
		{
			"doubleSided":true,
			"extensions":{
				"KHR_materials_specular":{
					"specularFactor":0
				}
			},
			"name":"Tecido",
			"pbrMetallicRoughness":{
				"baseColorFactor":[
					0.800000011920929,
					0.800000011920929,
					0.800000011920929,
					1
				],
				"metallicFactor":0
			}
		},
		{
			"doubleSided":true,
			"extensions":{
				"KHR_materials_specular":{
					"specularFactor":0
				}
			},
			"name":"Roda",
			"pbrMetallicRoughness":{
				"baseColorFactor":[
					0.800000011920929,
					0.800000011920929,
					0.800000011920929,
					1
				],
				"metallicFactor":0
			}
		}
	],
	"meshes":[
		{
			"name":"Eixo_da_Roda_L",
			"primitives":[
				{
					"attributes":{
						"POSITION":0,
						"NORMAL":1,
						"TEXCOORD_0":2
					},
					"indices":3,
					"material":0
				}
			]
		},
		{
			"name":"Eixo_da_Roda_R",
			"primitives":[
				{
					"attributes":{
						"POSITION":4,
						"NORMAL":5,
						"TEXCOORD_0":6
					},
					"indices":3,
					"material":0
				}
			]
		},
		{
			"name":"Estrutura",
			"primitives":[
				{
					"attributes":{
						"POSITION":7,
						"NORMAL":8,
						"TEXCOORD_0":9
					},
					"indices":10,
					"material":0
				},
				{
					"attributes":{
						"POSITION":11,
						"NORMAL":12,
						"TEXCOORD_0":13
					},
					"indices":14,
					"material":1
				},
				{
					"attributes":{
						"POSITION":15,
						"NORMAL":16,
						"TEXCOORD_0":17
					},
					"indices":18,
					"material":2
				}
			]
		},
		{
			"name":"Roda_Dianteira_L",
			"primitives":[
				{
					"attributes":{
						"POSITION":19,
						"NORMAL":20,
						"TEXCOORD_0":21
					},
					"indices":22,
					"material":0
				},
				{
					"attributes":{
						"POSITION":23,
						"NORMAL":24,
						"TEXCOORD_0":25
					},
					"indices":26,
					"material":3
				}
			]
		},
		{
			"name":"Roda_Dianteira_R",
			"primitives":[
				{
					"attributes":{
						"POSITION":27,
						"NORMAL":28,
						"TEXCOORD_0":29
					},
					"indices":22,
					"material":0
				},
				{
					"attributes":{
						"POSITION":30,
						"NORMAL":31,
						"TEXCOORD_0":32
					},
					"indices":26,
					"material":3
				}
			]
		},
		{
			"name":"Roda_Traseira_L",
			"primitives":[
				{
					"attributes":{
						"POSITION":33,
						"NORMAL":34,
						"TEXCOORD_0":35
					},
					"indices":36,
					"material":3
				}
			]
		},
		{
			"name":"Roda_Traseira_R",
			"primitives":[
				{
					"attributes":{
						"POSITION":37,
						"NORMAL":38,
						"TEXCOORD_0":39
					},
					"indices":36,
					"material":3
				}
			]
		}
	],
	"accessors":[
		{
			"bufferView":0,
			"componentType":5126,
			"count":716,
			"max":[
				-3.0984370708465576,
				-3.074441909790039,
				-2.9150400161743164
			],
			"min":[
				-3.684221029281616,
				-3.5352609157562256,
				-4.971664905548096
			],
			"type":"VEC3"
		},
		{
			"bufferView":1,
			"componentType":5126,
			"count":716,
			"type":"VEC3"
		},
		{
			"bufferView":2,
			"componentType":5126,
			"count":716,
			"type":"VEC2"
		},
		{
			"bufferView":3,
			"componentType":5123,
			"count":2004,
			"type":"SCALAR"
		},
		{
			"bufferView":4,
			"componentType":5126,
			"count":716,
			"max":[
				3.6823740005493164,
				-3.074441909790039,
				-2.9150400161743164
			],
			"min":[
				3.096590995788574,
				-3.5352609157562256,
				-4.971664905548096
			],
			"type":"VEC3"
		},
		{
			"bufferView":5,
			"componentType":5126,
			"count":716,
			"type":"VEC3"
		},
		{
			"bufferView":6,
			"componentType":5126,
			"count":716,
			"type":"VEC2"
		},
		{
			"bufferView":7,
			"componentType":5126,
			"count":1726,
			"max":[
				3.5910160541534424,
				4.743747234344482,
				-3.033921957015991
			],
			"min":[
				-3.5899109840393066,
				-7.696259021759033,
				-15.381744384765625
			],
			"type":"VEC3"
		},
		{
			"bufferView":8,
			"componentType":5126,
			"count":1726,
			"type":"VEC3"
		},
		{
			"bufferView":9,
			"componentType":5126,
			"count":1726,
			"type":"VEC2"
		},
		{
			"bufferView":10,
			"componentType":5123,
			"count":6504,
			"type":"SCALAR"
		},
		{
			"bufferView":11,
			"componentType":5126,
			"count":2848,
			"max":[
				3.775527000427246,
				5.7958760261535645,
				-3.05853009223938
			],
			"min":[
				-3.7744219303131104,
				-7.656970977783203,
				-15.46096134185791
			],
			"type":"VEC3"
		},
		{
			"bufferView":12,
			"componentType":5126,
			"count":2848,
			"type":"VEC3"
		},
		{
			"bufferView":13,
			"componentType":5126,
			"count":2848,
			"type":"VEC2"
		},
		{
			"bufferView":14,
			"componentType":5123,
			"count":12120,
			"type":"SCALAR"
		},
		{
			"bufferView":15,
			"componentType":5126,
			"count":1376,
			"max":[
				3.667797088623047,
				3.752824068069458,
				-8.294743537902832
			],
			"min":[
				-3.666692018508911,
				-3.150904893875122,
				-14.507753372192383
			],
			"type":"VEC3"
		},
		{
			"bufferView":16,
			"componentType":5126,
			"count":1376,
			"type":"VEC3"
		},
		{
			"bufferView":17,
			"componentType":5126,
			"count":1376,
			"type":"VEC2"
		},
		{
			"bufferView":18,
			"componentType":5123,
			"count":6696,
			"type":"SCALAR"
		},
		{
			"bufferView":19,
			"componentType":5126,
			"count":1952,
			"max":[
				-3.1452670097351074,
				-2.1182780265808105,
				-1.954475998878479
			],
			"min":[
				-3.6314799785614014,
				-4.342010021209717,
				-4.178297996520996
			],
			"type":"VEC3"
		},
		{
			"bufferView":20,
			"componentType":5126,
			"count":1952,
			"type":"VEC3"
		},
		{
			"bufferView":21,
			"componentType":5126,
			"count":1952,
			"type":"VEC2"
		},
		{
			"bufferView":22,
			"componentType":5123,
			"count":9420,
			"type":"SCALAR"
		},
		{
			"bufferView":23,
			"componentType":5126,
			"count":777,
			"max":[
				-3.260617971420288,
				-1.8661600351333618,
				-1.7023489475250244
			],
			"min":[
				-3.5161280632019043,
				-4.594128131866455,
				-4.43042516708374
			],
			"type":"VEC3"
		},
		{
			"bufferView":24,
			"componentType":5126,
			"count":777,
			"type":"VEC3"
		},
		{
			"bufferView":25,
			"componentType":5126,
			"count":777,
			"type":"VEC2"
		},
		{
			"bufferView":26,
			"componentType":5123,
			"count":4320,
			"type":"SCALAR"
		},
		{
			"bufferView":27,
			"componentType":5126,
			"count":1952,
			"max":[
				3.6325900554656982,
				-2.1182780265808105,
				-1.954475998878479
			],
			"min":[
				3.146375894546509,
				-4.342010021209717,
				-4.178297996520996
			],
			"type":"VEC3"
		},
		{
			"bufferView":28,
			"componentType":5126,
			"count":1952,
			"type":"VEC3"
		},
		{
			"bufferView":29,
			"componentType":5126,
			"count":1952,
			"type":"VEC2"
		},
		{
			"bufferView":30,
			"componentType":5126,
			"count":777,
			"max":[
				3.517237901687622,
				-1.8661600351333618,
				-1.7023489475250244
			],
			"min":[
				3.261728048324585,
				-4.594128131866455,
				-4.43042516708374
			],
			"type":"VEC3"
		},
		{
			"bufferView":31,
			"componentType":5126,
			"count":777,
			"type":"VEC3"
		},
		{
			"bufferView":32,
			"componentType":5126,
			"count":777,
			"type":"VEC2"
		},
		{
			"bufferView":33,
			"componentType":5126,
			"count":7758,
			"max":[
				-3.650477886199951,
				7.682168960571289,
				-1.7352420091629028
			],
			"min":[
				-4.710041046142578,
				-1.4882030487060547,
				-10.905616760253906
			],
			"type":"VEC3"
		},
		{
			"bufferView":34,
			"componentType":5126,
			"count":7758,
			"type":"VEC3"
		},
		{
			"bufferView":35,
			"componentType":5126,
			"count":7758,
			"type":"VEC2"
		},
		{
			"bufferView":36,
			"componentType":5123,
			"count":42024,
			"type":"SCALAR"
		},
		{
			"bufferView":37,
			"componentType":5126,
			"count":7758,
			"max":[
				4.711150169372559,
				7.682171821594238,
				-1.7352420091629028
			],
			"min":[
				3.65159010887146,
				-1.4882010221481323,
				-10.905616760253906
			],
			"type":"VEC3"
		},
		{
			"bufferView":38,
			"componentType":5126,
			"count":7758,
			"type":"VEC3"
		},
		{
			"bufferView":39,
			"componentType":5126,
			"count":7758,
			"type":"VEC2"
		}
	],
	"bufferViews":[
		{
			"buffer":0,
			"byteLength":8592,
			"byteOffset":0,
			"target":34962
		},
		{
			"buffer":0,
			"byteLength":8592,
			"byteOffset":8592,
			"target":34962
		},
		{
			"buffer":0,
			"byteLength":5728,
			"byteOffset":17184,
			"target":34962
		},
		{
			"buffer":0,
			"byteLength":4008,
			"byteOffset":22912,
			"target":34963
		},
		{
			"buffer":0,
			"byteLength":8592,
			"byteOffset":26920,
			"target":34962
		},
		{
			"buffer":0,
			"byteLength":8592,
			"byteOffset":35512,
			"target":34962
		},
		{
			"buffer":0,
			"byteLength":5728,
			"byteOffset":44104,
			"target":34962
		},
		{
			"buffer":0,
			"byteLength":20712,
			"byteOffset":49832,
			"target":34962
		},
		{
			"buffer":0,
			"byteLength":20712,
			"byteOffset":70544,
			"target":34962
		},
		{
			"buffer":0,
			"byteLength":13808,
			"byteOffset":91256,
			"target":34962
		},
		{
			"buffer":0,
			"byteLength":13008,
			"byteOffset":105064,
			"target":34963
		},
		{
			"buffer":0,
			"byteLength":34176,
			"byteOffset":118072,
			"target":34962
		},
		{
			"buffer":0,
			"byteLength":34176,
			"byteOffset":152248,
			"target":34962
		},
		{
			"buffer":0,
			"byteLength":22784,
			"byteOffset":186424,
			"target":34962
		},
		{
			"buffer":0,
			"byteLength":24240,
			"byteOffset":209208,
			"target":34963
		},
		{
			"buffer":0,
			"byteLength":16512,
			"byteOffset":233448,
			"target":34962
		},
		{
			"buffer":0,
			"byteLength":16512,
			"byteOffset":249960,
			"target":34962
		},
		{
			"buffer":0,
			"byteLength":11008,
			"byteOffset":266472,
			"target":34962
		},
		{
			"buffer":0,
			"byteLength":13392,
			"byteOffset":277480,
			"target":34963
		},
		{
			"buffer":0,
			"byteLength":23424,
			"byteOffset":290872,
			"target":34962
		},
		{
			"buffer":0,
			"byteLength":23424,
			"byteOffset":314296,
			"target":34962
		},
		{
			"buffer":0,
			"byteLength":15616,
			"byteOffset":337720,
			"target":34962
		},
		{
			"buffer":0,
			"byteLength":18840,
			"byteOffset":353336,
			"target":34963
		},
		{
			"buffer":0,
			"byteLength":9324,
			"byteOffset":372176,
			"target":34962
		},
		{
			"buffer":0,
			"byteLength":9324,
			"byteOffset":381500,
			"target":34962
		},
		{
			"buffer":0,
			"byteLength":6216,
			"byteOffset":390824,
			"target":34962
		},
		{
			"buffer":0,
			"byteLength":8640,
			"byteOffset":397040,
			"target":34963
		},
		{
			"buffer":0,
			"byteLength":23424,
			"byteOffset":405680,
			"target":34962
		},
		{
			"buffer":0,
			"byteLength":23424,
			"byteOffset":429104,
			"target":34962
		},
		{
			"buffer":0,
			"byteLength":15616,
			"byteOffset":452528,
			"target":34962
		},
		{
			"buffer":0,
			"byteLength":9324,
			"byteOffset":468144,
			"target":34962
		},
		{
			"buffer":0,
			"byteLength":9324,
			"byteOffset":477468,
			"target":34962
		},
		{
			"buffer":0,
			"byteLength":6216,
			"byteOffset":486792,
			"target":34962
		},
		{
			"buffer":0,
			"byteLength":93096,
			"byteOffset":493008,
			"target":34962
		},
		{
			"buffer":0,
			"byteLength":93096,
			"byteOffset":586104,
			"target":34962
		},
		{
			"buffer":0,
			"byteLength":62064,
			"byteOffset":679200,
			"target":34962
		},
		{
			"buffer":0,
			"byteLength":84048,
			"byteOffset":741264,
			"target":34963
		},
		{
			"buffer":0,
			"byteLength":93096,
			"byteOffset":825312,
			"target":34962
		},
		{
			"buffer":0,
			"byteLength":93096,
			"byteOffset":918408,
			"target":34962
		},
		{
			"buffer":0,
			"byteLength":62064,
			"byteOffset":1011504,
			"target":34962
		}
	],
	"buffers":[
		{
			"byteLength":1073568,
			"uri":"silla.bin"
		}
	]
}
