<?xml version="1.0" encoding="UTF-8"?>
<svg width="210mm" height="297mm" shape-rendering="crispEdges" version="1.1" viewBox="0 0 744.09448819 1052.3622047" xmlns="http://www.w3.org/2000/svg">
 <defs>
  <radialGradient id="a" cx="-62.863" cy="286.51" r="49.769" gradientTransform="matrix(-.54139 -2.2875 2.223 -.52612 -258.16 466.13)" gradientUnits="userSpaceOnUse">
   <stop stop-color="#808080" offset="0"/>
   <stop offset="1"/>
  </radialGradient>
 </defs>
 <g stroke-width="0">
  <path d="m388 329.64-117.54 67.861 38.971 22.498 78.57-45.361v2e-3l78.57 45.361 38.971-22.5-117.54-67.861z" fill="#5c5c5c"/>
  <path d="m505.54 397.5-38.971 22.5v90.725l-2e-3 -2e-3 -78.568 45.361v45.002l117.54-67.861v-135.72z" fill="#808080"/>
  <path d="m270.46 397.5v135.72l117.54 67.861v-45.002l-78.57-45.361v-90.725l-38.971-22.498z" fill="#1a1a1a"/>
  <path d="m344.97 490.2-35.541 20.52 78.57 45.361 78.568-45.361-35.527-20.512a49.769 49.769 0 0 1 -43.041 24.875 49.769 49.769 0 0 1 -43.029 -24.883z" fill="#5c5c5c"/>
  <path d="m388 374.64-78.57 45.361v90.725l35.541-20.52a49.769 49.769 0 0 1 -6.7402 -24.887 49.769 49.769 0 0 1 49.77 -49.77v-40.91z" fill="#5c5c5c"/>
  <path d="m388 374.64v40.908a49.769 49.769 0 0 1 49.77 49.77 49.769 49.769 0 0 1 -6.7285 24.896l35.529 20.512v-90.725l-78.57-45.361z" fill="#1a1a1a"/>
  <path d="m379.59 470.22-48.781 28.162a81.682 26.61 30.07 0 0 71.164 10.963 81.682 26.61 30.07 0 0 -22.383 -39.125z" fill="#1a1a1a"/>
  <path d="m388 374.64-78.57 45.361v90.725l35.541-20.52a49.769 49.769 0 0 1 -6.7402 -24.887 49.769 49.769 0 0 1 49.77 -49.77v-40.91z" fill="#808080"/>
  <path d="m379.59 470.22-48.78 28.165c2.2509-46.009 13.231-79.473 26.088-79.512 9.2407 0.0357 17.831 22.707 22.692 51.347z" fill="#1a1a1a"/>
  <circle cx="388" cy="465.32" r="49.769" fill="url(#a)"/>
 </g>
</svg>
